<?xml version="1.0" encoding="UTF-8"?>
<svg id="Layer_2" data-name="Layer 2" xmlns="http://www.w3.org/2000/svg" xmlns:xlink="http://www.w3.org/1999/xlink" viewBox="0 0 433.35 329.09">
  <defs>
    <style>
      .cls-1 {
        fill: url(#linear-gradient);
      }

      .cls-1, .cls-2, .cls-3, .cls-4 {
        stroke-width: 0px;
      }

      .cls-2 {
        fill: #000;
      }

      .cls-3 {
        fill: #74a4e4;
      }

      .cls-4 {
        fill: #242860;
      }
    </style>
    <linearGradient id="linear-gradient" x1="59.03" y1="81.34" x2="384.38" y2="81.34" gradientUnits="userSpaceOnUse">
      <stop offset="0" stop-color="#ffd549"/>
      <stop offset="1" stop-color="#e37727"/>
    </linearGradient>
  </defs>
  <g id="OBJECTS">
    <g>
      <g>
        <path class="cls-4" d="M43.56,283.47c-8.2,0-14.51-2.46-18.96-7.38-4.44-4.92-6.67-11.99-6.67-21.19s2.22-16.27,6.67-21.19c4.44-4.92,10.76-7.38,18.96-7.38s14.57,2.46,18.96,7.38c4.39,4.92,6.58,11.99,6.58,21.19s-2.2,16.27-6.58,21.19c-4.39,4.92-10.71,7.38-18.96,7.38ZM43.56,273.01c4.26,0,7.48-1.53,9.66-4.59,2.18-3.06,3.27-7.57,3.27-13.53s-1.09-10.54-3.27-13.57c-2.18-3.03-5.4-4.55-9.66-4.55s-7.49,1.52-9.7,4.55c-2.21,3.03-3.31,7.56-3.31,13.57s1.1,10.47,3.31,13.53c2.21,3.06,5.44,4.59,9.7,4.59ZM35.74,223.28c-1.76,0-3.02-.21-3.79-.64s-1.16-1.06-1.16-1.92v-5.11c0-.9.39-1.56,1.16-1.96s2.04-.6,3.79-.6,3.02.2,3.79.6,1.16,1.05,1.16,1.96v5.11c0,.85-.39,1.49-1.16,1.92s-2.04.64-3.79.64ZM51.38,223.28c-1.76,0-3.02-.21-3.79-.64-.77-.43-1.16-1.06-1.16-1.92v-5.11c0-.9.38-1.56,1.16-1.96.77-.4,2.04-.6,3.79-.6s3.02.2,3.79.6c.77.4,1.16,1.05,1.16,1.96v5.11c0,.85-.39,1.49-1.16,1.92-.77.43-2.04.64-3.79.64Z"/>
        <path class="cls-4" d="M103.59,282.83c-.64,0-1.2-.27-1.68-.8-.48-.53-.89-1.18-1.24-1.96-.35-.77-.6-1.54-.76-2.31-.16-.77-.24-1.42-.24-1.96v-.84c0-.4.19-.86.56-1.4l27.22-40.87,2.63,4.71h-26.42c-1.6,0-2.39-1.33-2.39-3.99v-2.47c0-2.66.8-3.99,2.39-3.99h32.89c.64,0,1.2.27,1.68.8.48.53.89,1.18,1.24,1.96.35.77.6,1.54.76,2.32.16.77.24,1.42.24,1.96s-.03.95-.08,1.24c-.05.29-.21.63-.48,1l-27.22,40.87-2.63-4.71h28.02c1.6,0,2.39,1.33,2.39,3.99v2.47c0,2.66-.8,3.99-2.39,3.99h-34.48Z"/>
        <path class="cls-4" d="M177.1,282.83c-1.97,0-2.95-1.06-2.95-3.19v-49.49c0-2.13.98-3.19,2.95-3.19h28.5c1.6,0,2.39,1.33,2.39,3.99v2.47c0,2.66-.8,3.99-2.39,3.99h-19.08v11.57h17c1.54,0,2.31,1.33,2.31,3.99v2.47c0,2.66-.77,3.99-2.31,3.99h-17v12.93h19.16c1.6,0,2.4,1.33,2.4,3.99v2.47c0,2.66-.8,3.99-2.4,3.99h-28.58Z"/>
        <path class="cls-4" d="M248.46,282.99c-1.65,0-2.86-.23-3.63-.68-.77-.45-1.16-1.1-1.16-1.96v-50.93c0-.85.39-1.5,1.16-1.96.77-.45,1.98-.68,3.63-.68h2.71c.96,0,1.77.07,2.43.2.67.13,1.28.39,1.84.76.56.37,1.1.96,1.64,1.76l18.92,27.54c.58.8,1.14,1.7,1.68,2.71.53,1.01,1.04,1.94,1.52,2.79l.32-.08c-.05-.9-.12-1.88-.2-2.91-.08-1.04-.12-2.14-.12-3.31v-26.82c0-.85.39-1.5,1.16-1.96.77-.45,1.98-.68,3.63-.68h1.92c1.7,0,2.93.23,3.67.68s1.12,1.1,1.12,1.96v50.93c0,.85-.37,1.5-1.12,1.96s-1.97.68-3.67.68h-2.71c-.8,0-1.52-.05-2.16-.16s-1.21-.31-1.72-.6c-.51-.29-.97-.76-1.4-1.4l-19.56-28.5c-.53-.8-1.08-1.7-1.64-2.71-.56-1.01-1.08-1.94-1.56-2.79l-.32.08c.11.91.19,1.88.24,2.91.05,1.04.08,2.14.08,3.31v27.22c0,.85-.37,1.5-1.12,1.96-.75.45-1.97.68-3.67.68h-1.92Z"/>
        <path class="cls-4" d="M333.16,223.76c-2.13,0-3.69-.21-4.67-.64-.99-.43-1.48-1.06-1.48-1.92v-6.23c0-.85.49-1.49,1.48-1.92.98-.43,2.54-.64,4.67-.64s3.75.21,4.71.64c.96.43,1.44,1.07,1.44,1.92v6.23c0,.85-.48,1.49-1.44,1.92-.96.43-2.53.64-4.71.64ZM331.8,282.99c-1.65,0-2.86-.23-3.63-.68-.77-.45-1.16-1.1-1.16-1.96v-50.93c0-.85.39-1.5,1.16-1.96.77-.45,1.98-.68,3.63-.68h2.79c1.7,0,2.93.23,3.67.68.74.45,1.12,1.1,1.12,1.96v50.93c0,.85-.37,1.5-1.12,1.96-.75.45-1.97.68-3.67.68h-2.79Z"/>
        <path class="cls-4" d="M380.33,282.99c-1.65,0-2.86-.23-3.63-.68-.77-.45-1.16-1.1-1.16-1.96v-50.21c0-2.13.98-3.19,2.95-3.19h15.8c7.02,0,12.15,1.38,15.37,4.15,3.22,2.77,4.83,6.68,4.83,11.73,0,2.29-.33,4.31-1,6.07-.67,1.76-1.65,3.25-2.95,4.47-1.3,1.22-2.94,2.18-4.91,2.87v.32c.9.32,1.82,1.01,2.75,2.08.93,1.07,1.66,2.29,2.2,3.67l6.47,16.12c.27.59.46,1.12.6,1.6.13.48.2.88.2,1.2,0,.69-.35,1.16-1.04,1.4-.69.24-1.89.36-3.59.36h-3.27c-1.17,0-2.17-.15-2.99-.44-.83-.29-1.45-.94-1.88-1.96l-5.99-14.53c-.43-1.12-.95-2.02-1.56-2.71-.61-.69-1.42-1.21-2.43-1.56-1.01-.35-2.39-.52-4.15-.52h-3.03v19.08c0,.85-.37,1.5-1.12,1.96-.75.45-1.97.68-3.67.68h-2.79ZM387.91,251.62h7.02c2.45,0,4.22-.56,5.31-1.68,1.09-1.12,1.64-2.93,1.64-5.43s-.55-4.31-1.64-5.43c-1.09-1.12-2.86-1.68-5.31-1.68h-7.02v14.21Z"/>
      </g>
      <g>
        <path class="cls-2" d="M28.32,329.09c-1.49,0-2.87-.25-4.15-.75-1.27-.5-2.38-1.21-3.31-2.12-.93-.92-1.66-1.98-2.18-3.2-.52-1.22-.78-2.55-.78-4.01s.26-2.79.78-4.01c.52-1.22,1.25-2.28,2.18-3.2.93-.92,2.03-1.62,3.3-2.12,1.26-.5,2.65-.75,4.16-.75s2.87.25,4.13.75c1.26.5,2.36,1.2,3.3,2.11.93.91,1.66,1.97,2.18,3.2.52,1.23.78,2.57.78,4.02s-.26,2.79-.78,4.02c-.52,1.23-1.25,2.29-2.18,3.2-.93.91-2.03,1.61-3.3,2.11s-2.64.75-4.13.75ZM28.32,327.22c1.19,0,2.29-.2,3.3-.61,1.01-.41,1.89-.98,2.63-1.73.75-.75,1.33-1.61,1.74-2.6.42-.99.62-2.08.62-3.27s-.21-2.28-.62-3.27c-.42-.99-1-1.86-1.74-2.6-.75-.75-1.62-1.32-2.63-1.73s-2.11-.61-3.3-.61-2.29.2-3.31.61c-1.02.41-1.91.98-2.66,1.73-.75.75-1.34,1.61-1.75,2.6-.42.99-.62,2.08-.62,3.27s.21,2.26.62,3.26c.42,1,1,1.87,1.75,2.62.75.75,1.64,1.32,2.66,1.73,1.02.41,2.12.61,3.31.61Z"/>
        <path class="cls-2" d="M46.78,328.92v-18.01h-6.96v-1.81h16.02v1.81h-6.96v18.01h-2.09Z"/>
        <path class="cls-2" d="M67.37,329.09c-1.49,0-2.87-.25-4.15-.75-1.27-.5-2.38-1.21-3.31-2.12-.93-.92-1.66-1.98-2.18-3.2-.52-1.22-.78-2.55-.78-4.01s.26-2.79.78-4.01c.52-1.22,1.25-2.28,2.18-3.2.93-.92,2.03-1.62,3.3-2.12,1.26-.5,2.65-.75,4.16-.75s2.87.25,4.13.75c1.26.5,2.36,1.2,3.3,2.11.93.91,1.66,1.97,2.18,3.2.52,1.23.78,2.57.78,4.02s-.26,2.79-.78,4.02c-.52,1.23-1.25,2.29-2.18,3.2-.93.91-2.03,1.61-3.3,2.11s-2.64.75-4.13.75ZM67.37,327.22c1.19,0,2.29-.2,3.3-.61,1.01-.41,1.89-.98,2.63-1.73.75-.75,1.33-1.61,1.74-2.6.42-.99.62-2.08.62-3.27s-.21-2.28-.62-3.27c-.42-.99-1-1.86-1.74-2.6-.75-.75-1.62-1.32-2.63-1.73s-2.11-.61-3.3-.61-2.29.2-3.31.61c-1.02.41-1.91.98-2.66,1.73-.75.75-1.34,1.61-1.75,2.6-.42.99-.62,2.08-.62,3.27s.21,2.26.62,3.26c.42,1,1,1.87,1.75,2.62.75.75,1.64,1.32,2.66,1.73,1.02.41,2.12.61,3.31.61Z"/>
        <path class="cls-2" d="M88.91,328.92v-19.82h8.55c2.21,0,3.92.44,5.14,1.33,1.22.89,1.83,2.14,1.83,3.76,0,1.08-.25,1.98-.75,2.72-.5.74-1.18,1.29-2.04,1.67-.86.38-1.8.57-2.82.57l.48-.68c1.26,0,2.35.19,3.27.58.92.39,1.63.96,2.14,1.73s.76,1.71.76,2.85c0,1.68-.62,2.98-1.85,3.91-1.24.93-3.1,1.39-5.59,1.39h-9.12ZM91.01,327.19h6.99c1.74,0,3.07-.3,3.99-.89s1.39-1.54,1.39-2.84-.46-2.22-1.39-2.82-2.26-.89-3.99-.89h-7.22v-1.73h6.54c1.59,0,2.82-.3,3.7-.91.88-.6,1.32-1.5,1.32-2.69s-.44-2.11-1.32-2.7-2.11-.89-3.7-.89h-6.31v16.37Z"/>
        <path class="cls-2" d="M106.61,328.92l9.06-19.82h2.07l9.06,19.82h-2.21l-8.32-18.6h.85l-8.32,18.6h-2.18ZM110.17,323.62l.62-1.7h11.52l.62,1.7h-12.77Z"/>
        <path class="cls-2" d="M129.59,328.92v-19.82h2.09v19.82h-2.09ZM131.41,323.99l-.08-2.55,12-12.34h2.41l-8.75,9.17-1.19,1.27-4.39,4.44ZM143.84,328.92l-8.55-9.85,1.42-1.53,9.63,11.38h-2.49Z"/>
        <path class="cls-2" d="M149.24,328.92v-19.82h2.09v19.82h-2.09Z"/>
        <path class="cls-2" d="M157.31,328.92v-19.82h1.73l9.06,15.46h-.91l8.97-15.46h1.73v19.82h-2.01v-16.68h.48l-8.27,14.16h-.99l-8.32-14.16h.54v16.68h-2.01Z"/>
        <path class="cls-2" d="M189.28,322.12v-1.75h7.42v1.75h-7.42Z"/>
        <path class="cls-2" d="M211.92,328.92v-18.01h-6.96v-1.81h16.02v1.81h-6.96v18.01h-2.09Z"/>
        <path class="cls-2" d="M220.67,328.92l9.06-19.82h2.07l9.06,19.82h-2.21l-8.32-18.6h.85l-8.32,18.6h-2.18ZM224.24,323.62l.62-1.7h11.52l.62,1.7h-12.77Z"/>
        <path class="cls-2" d="M243.66,328.92v-19.82h1.73l9.06,15.46h-.91l8.97-15.46h1.73v19.82h-2.01v-16.68h.48l-8.27,14.16h-.99l-8.32-14.16h.54v16.68h-2.01Z"/>
        <path class="cls-2" d="M271.27,306.83c-.38,0-.7-.13-.96-.4-.26-.26-.4-.58-.4-.96s.13-.7.4-.96.58-.4.96-.4.7.13.96.4.4.59.4.96-.13.7-.4.96c-.26.26-.58.4-.96.4ZM270.22,328.92v-19.82h2.09v19.82h-2.09Z"/>
        <path class="cls-2" d="M278.29,328.92v-19.82h7.42c1.68,0,3.12.27,4.33.81s2.14,1.31,2.79,2.32.98,2.23.98,3.67-.33,2.6-.98,3.61c-.65,1.01-1.58,1.78-2.79,2.32-1.21.54-2.65.81-4.33.81h-6.26l.93-.96v7.25h-2.09ZM280.38,321.84l-.93-.99h6.2c1.98,0,3.49-.43,4.52-1.3,1.03-.87,1.54-2.09,1.54-3.65s-.51-2.81-1.54-3.68c-1.03-.87-2.53-1.3-4.52-1.3h-6.2l.93-.99v11.92ZM291.82,328.92l-5.1-7.19h2.27l5.12,7.19h-2.29Z"/>
        <path class="cls-2" d="M303.68,322.12v-1.75h7.42v1.75h-7.42Z"/>
        <path class="cls-2" d="M327.94,329.09c-1.47,0-2.88-.24-4.23-.72s-2.39-1.1-3.13-1.85l.82-1.61c.7.68,1.64,1.25,2.82,1.71,1.18.46,2.42.69,3.72.69s2.26-.16,3.04-.47,1.36-.73,1.73-1.26c.37-.53.55-1.11.55-1.75,0-.77-.22-1.4-.67-1.87s-1.02-.84-1.74-1.12c-.72-.27-1.51-.51-2.38-.72s-1.74-.43-2.6-.67c-.87-.24-1.67-.55-2.39-.95s-1.31-.92-1.75-1.57c-.44-.65-.67-1.5-.67-2.56,0-.98.26-1.88.78-2.7.52-.82,1.32-1.48,2.39-1.98,1.08-.5,2.45-.75,4.13-.75,1.11,0,2.22.16,3.31.47,1.09.31,2.04.74,2.83,1.29l-.71,1.67c-.85-.57-1.75-.98-2.7-1.25-.95-.26-1.87-.4-2.76-.4-1.19,0-2.17.16-2.94.48-.77.32-1.34.75-1.71,1.29-.37.54-.55,1.15-.55,1.83,0,.77.22,1.4.67,1.87s1.03.84,1.76,1.1c.73.26,1.52.5,2.39.71.87.21,1.73.43,2.59.68.86.25,1.65.56,2.38.95.73.39,1.31.9,1.76,1.54.44.64.67,1.48.67,2.52,0,.96-.26,1.85-.79,2.67-.53.82-1.33,1.48-2.42,1.98-1.09.5-2.48.75-4.18.75Z"/>
        <path class="cls-2" d="M341.51,327.11h11.92v1.81h-14.01v-19.82h13.59v1.81h-11.5v16.2ZM341.28,317.96h10.48v1.78h-10.48v-1.78Z"/>
        <path class="cls-2" d="M357.87,328.92v-19.82h7.42c1.68,0,3.12.27,4.33.81s2.14,1.31,2.79,2.32.98,2.23.98,3.67-.33,2.6-.98,3.61c-.65,1.01-1.58,1.78-2.79,2.32-1.21.54-2.65.81-4.33.81h-6.26l.93-.96v7.25h-2.09ZM359.96,321.84l-.93-.99h6.2c1.98,0,3.49-.43,4.52-1.3,1.03-.87,1.54-2.09,1.54-3.65s-.51-2.81-1.54-3.68c-1.03-.87-2.53-1.3-4.52-1.3h-6.2l.93-.99v11.92ZM371.4,328.92l-5.1-7.19h2.27l5.12,7.19h-2.29Z"/>
        <path class="cls-2" d="M383.49,328.92l-8.78-19.82h2.26l8.21,18.66h-1.25l8.27-18.66h2.12l-8.78,19.82h-2.07Z"/>
        <path class="cls-2" d="M398.19,306.83c-.38,0-.7-.13-.96-.4-.26-.26-.4-.58-.4-.96s.13-.7.4-.96.58-.4.96-.4.7.13.96.4.4.59.4.96-.13.7-.4.96c-.26.26-.58.4-.96.4ZM397.14,328.92v-19.82h2.09v19.82h-2.09Z"/>
        <path class="cls-2" d="M410.67,329.09c-1.47,0-2.88-.24-4.23-.72s-2.39-1.1-3.13-1.85l.82-1.61c.7.68,1.64,1.25,2.82,1.71,1.18.46,2.42.69,3.72.69s2.26-.16,3.04-.47,1.36-.73,1.73-1.26c.37-.53.55-1.11.55-1.75,0-.77-.22-1.4-.67-1.87s-1.02-.84-1.74-1.12c-.72-.27-1.51-.51-2.38-.72s-1.74-.43-2.6-.67c-.87-.24-1.67-.55-2.39-.95s-1.31-.92-1.75-1.57c-.44-.65-.67-1.5-.67-2.56,0-.98.26-1.88.78-2.7.52-.82,1.32-1.48,2.39-1.98,1.08-.5,2.45-.75,4.13-.75,1.11,0,2.22.16,3.31.47,1.09.31,2.04.74,2.83,1.29l-.71,1.67c-.85-.57-1.75-.98-2.7-1.25-.95-.26-1.87-.4-2.76-.4-1.19,0-2.17.16-2.94.48-.77.32-1.34.75-1.71,1.29-.37.54-.55,1.15-.55,1.83,0,.77.22,1.4.67,1.87s1.03.84,1.76,1.1c.73.26,1.52.5,2.39.71.87.21,1.73.43,2.59.68.86.25,1.65.56,2.38.95.73.39,1.31.9,1.76,1.54.44.64.67,1.48.67,2.52,0,.96-.26,1.85-.79,2.67-.53.82-1.33,1.48-2.42,1.98-1.09.5-2.48.75-4.18.75Z"/>
      </g>
      <path class="cls-4" d="M433.35,245.52s-43.72-88.65-185.91-147.15l-38.24-62.11s172.29,73.16,224.16,209.26Z"/>
      <path class="cls-1" d="M221.7,67.1c52.79,0,95.58,42.79,95.58,95.58h67.1c0-5.9-.33-11.72-.94-17.46l-29.15-6.37c-1.34-7.52-3.28-14.83-5.82-21.86l22.02-20.06c-4.75-10.74-10.62-20.87-17.48-30.23l-28.42,9.05c-4.87-5.76-10.21-11.1-15.97-15.97l9.05-28.42c-9.37-6.86-19.5-12.72-30.23-17.48l-20.06,22.03c-7.03-2.53-14.34-4.47-21.86-5.82l-6.37-29.15C233.43.33,227.6,0,221.7,0c-5.9,0-11.72.33-17.46.94l-6.37,29.15c-7.52,1.34-14.83,3.28-21.86,5.82l-20.06-22.03c-10.74,4.75-20.87,10.62-30.23,17.48l9.05,28.42c-5.76,4.87-11.1,10.21-15.97,15.97l-28.42-9.05c-6.86,9.37-12.72,19.49-17.48,30.23l22.02,20.06c-2.53,7.03-4.47,14.34-5.82,21.86l-29.14,6.37c-.61,5.74-.94,11.56-.94,17.46h67.1c0-52.79,42.79-95.58,95.58-95.58Z"/>
      <g>
        <path class="cls-4" d="M0,116.61l30.75,49.94c9.51-.66,18.87-1.18,28.04-1.58l-30.46-49.5c-12.39.26-22.07.72-28.33,1.15Z"/>
        <path class="cls-4" d="M84.05,116.15l29.36,47.72c7.92.03,15.68.17,23.28.37l-28.79-46.77c-8.24-.58-16.22-1.01-23.86-1.33Z"/>
        <path class="cls-4" d="M59.13,115.43l29.91,48.58c7.12-.14,14.12-.17,20.98-.17l-29.42-47.83c-7.52-.29-14.7-.46-21.47-.58Z"/>
        <path class="cls-4" d="M38.41,115.34l30.28,49.22c4.61-.17,9.16-.32,13.66-.4l-30.05-48.81c-4.87-.03-9.51-.03-13.89,0Z"/>
        <path class="cls-3" d="M4.74,171.35l10.76,17.5c63.66-17.94,112.94-24.35,147.87-25.7,0,0-57.45-3.46-158.64,8.2Z"/>
        <path class="cls-3" d="M63.65,62.98l38.3,62.15c211.48,8.56,303.82,92.39,306.7,94.95C319.32,111.99,148.82,68.95,63.65,62.98Z"/>
        <path class="cls-4" d="M109.67,117.59l28.76,46.71c176.23,5.24,267.69,54.37,270.23,55.81-76.22-72.67-204.79-95.98-298.98-102.52Z"/>
      </g>
    </g>
  </g>
</svg>